<svg xmlns="http://www.w3.org/2000/svg" xmlns:xlink="http://www.w3.org/1999/xlink" width="500" zoomAndPan="magnify" viewBox="0 0 375 374.999991" height="500" preserveAspectRatio="xMidYMid meet" version="1.0"><defs><g/><clipPath id="id1"><path d="M 3.914062 3.914062 L 371.414062 3.914062 L 371.414062 371.414062 L 3.914062 371.414062 Z M 3.914062 3.914062 " clip-rule="nonzero"/></clipPath><clipPath id="id2"><path d="M 69 136 L 147 136 L 147 215 L 69 215 Z M 69 136 " clip-rule="nonzero"/></clipPath><clipPath id="id3"><path d="M 69.683594 171.242188 L 107.429688 136.945312 L 146.769531 180.242188 L 109.027344 214.539062 Z M 69.683594 171.242188 " clip-rule="nonzero"/></clipPath><clipPath id="id4"><path d="M 121.929688 56.792969 L 187.179688 56.792969 L 187.179688 150.542969 L 121.929688 150.542969 Z M 121.929688 56.792969 " clip-rule="nonzero"/></clipPath></defs><g clip-path="url(#id1)"><path fill="#666666" d="M 187.664062 3.914062 C 86.183594 3.914062 3.914062 86.183594 3.914062 187.664062 C 3.914062 289.148438 86.183594 371.414062 187.664062 371.414062 C 289.148438 371.414062 371.414062 289.148438 371.414062 187.664062 C 371.414062 86.183594 289.148438 3.914062 187.664062 3.914062 " fill-opacity="1" fill-rule="nonzero"/></g><g fill="#ffffff" fill-opacity="1"><g transform="translate(114.662803, 287.560052)"><g><path d="M 39.996094 0 L 39.996094 -183.238281 L 79.808594 -183.238281 C 101.757812 -183.238281 110.503906 -169.84375 110.503906 -152.359375 C 110.503906 -103.617188 54.320312 -101.386719 54.320312 -83.339844 C 54.320312 -71.4375 78.132812 -34.601562 93.757812 -14.136719 C 103.433594 -1.488281 103.992188 0 114.964844 0 L 145.660156 0 L 145.660156 -1.117188 C 132.265625 -1.117188 75.898438 -83.15625 75.898438 -95.992188 C 75.898438 -107.339844 137.476562 -109.199219 137.476562 -154.03125 C 137.476562 -169.289062 127.617188 -186.03125 107.339844 -186.03125 L 13.023438 -186.03125 L 13.023438 0 Z M 39.996094 0 "/></g></g></g><g clip-path="url(#id2)"><g clip-path="url(#id3)"><path fill="#666666" d="M 69.683594 171.246094 L 107.429688 136.945312 L 146.769531 180.242188 L 109.023438 214.539062 L 69.683594 171.246094 " fill-opacity="1" fill-rule="nonzero"/></g></g><g clip-path="url(#id4)"><path fill="#666666" d="M 121.933594 56.792969 L 187.179688 56.792969 L 187.179688 150.542969 L 121.933594 150.542969 L 121.933594 56.792969 " fill-opacity="1" fill-rule="nonzero"/></g><g fill="#ffa400" fill-opacity="1"><g transform="translate(54.684537, 111.587885)"><g><path d="M 14.277344 6.160156 L 26.046875 6.160156 L 26.046875 12.875 C 26.046875 14.617188 25.496094 16.019531 24.390625 17.082031 C 23.285156 18.101562 21.925781 18.652344 20.226562 18.652344 C 18.527344 18.652344 17.125 18.101562 15.976562 16.996094 C 14.828125 15.890625 14.277344 14.53125 14.277344 12.875 Z M 20.183594 21.628906 C 22.648438 21.628906 24.773438 20.695312 26.429688 18.910156 C 28.042969 17.167969 28.894531 15 28.894531 12.449219 L 28.894531 3.1875 L 0 3.1875 L 0 6.160156 L 11.429688 6.160156 L 11.429688 9.601562 L 0 18.101562 L 0 22.097656 L 11.429688 13.171875 C 11.558594 15.425781 12.363281 17.335938 13.851562 18.910156 C 15.507812 20.695312 17.632812 21.628906 20.183594 21.628906 Z M 20.183594 21.628906 "/></g></g></g><g fill="#ffffff" fill-opacity="1"><g transform="translate(54.684537, 143.19014)"><g><path d="M 0 20.355469 L 2.761719 20.355469 L 2.761719 6.160156 L 13.046875 6.160156 L 13.046875 19.929688 L 15.847656 19.929688 L 15.847656 6.160156 L 26.132812 6.160156 L 26.132812 20.355469 L 28.894531 20.355469 L 28.894531 3.1875 L 0 3.1875 Z M 0 20.355469 "/></g></g></g><g fill="#ffffff" fill-opacity="1"><g transform="translate(54.684537, 175.225714)"><g><path d="M 2.972656 6.160156 L 28.894531 6.160156 L 28.894531 3.1875 L 0 3.1875 L 0 16.488281 L 2.972656 16.488281 Z M 2.972656 6.160156 "/></g></g></g><g fill="#ffffff" fill-opacity="1"><g transform="translate(54.684537, 201.058516)"><g><path d="M 0 6.160156 L 28.894531 6.160156 L 28.894531 3.1875 L 0 3.1875 Z M 0 6.160156 "/></g></g></g><g fill="#ffffff" fill-opacity="1"><g transform="translate(54.684537, 218.904201)"><g><path d="M 21.289062 6.160156 L -1.785156 22.394531 L 28.894531 22.394531 L 28.894531 19.417969 L 7.648438 19.417969 L 30.722656 3.1875 L 0 3.1875 L 0 6.160156 Z M 21.289062 6.160156 "/></g></g></g><g fill="#ffffff" fill-opacity="1"><g transform="translate(54.684537, 252.979033)"><g><path d="M 0 6.160156 L 13.554688 6.160156 L 0 15.890625 L 0 19.714844 L 14.445312 9.09375 L 28.894531 19.714844 L 28.894531 15.890625 L 15.296875 6.160156 L 28.894531 6.160156 L 28.894531 3.1875 L 0 3.1875 Z M 0 6.160156 "/></g></g></g><g fill="#ffa400" fill-opacity="1"><g transform="translate(245.283304, 264.40771)"><g><path d="M 4.734375 0 L 45.320312 0 L 45.320312 -11.09375 C 40.71875 -6.359375 26.378906 -1.082031 14.542969 -1.015625 L 14.542969 -67.640625 L 4.734375 -67.640625 Z M 4.734375 0 "/></g></g></g></svg>