<svg xmlns="http://www.w3.org/2000/svg" xmlns:xlink="http://www.w3.org/1999/xlink" width="250" zoomAndPan="magnify" viewBox="0 0 187.5 37.5" height="50" preserveAspectRatio="xMidYMid meet" version="1.0"><defs><g/></defs><g fill="#ffa400" fill-opacity="1"><g transform="translate(23.183546, 15.356642)"><g><path d="M 1.832031 -4.242188 L 1.832031 -7.738281 L 3.824219 -7.738281 C 4.34375 -7.738281 4.757812 -7.574219 5.074219 -7.246094 C 5.378906 -6.917969 5.542969 -6.511719 5.542969 -6.007812 C 5.542969 -5.503906 5.378906 -5.085938 5.050781 -4.746094 C 4.71875 -4.40625 4.316406 -4.242188 3.824219 -4.242188 Z M 6.425781 -5.996094 C 6.425781 -6.726562 6.148438 -7.359375 5.617188 -7.851562 C 5.097656 -8.332031 4.457031 -8.582031 3.699219 -8.582031 L 0.945312 -8.582031 L 0.945312 0 L 1.832031 0 L 1.832031 -3.394531 L 2.851562 -3.394531 L 5.378906 0 L 6.5625 0 L 3.914062 -3.394531 C 4.582031 -3.433594 5.148438 -3.671875 5.617188 -4.113281 C 6.148438 -4.605469 6.425781 -5.238281 6.425781 -5.996094 Z M 6.425781 -5.996094 "/></g></g></g><g fill="#ffa400" fill-opacity="1"><g transform="translate(32.57393, 15.356642)"><g><path d="M 6.046875 0 L 6.046875 -0.820312 L 1.832031 -0.820312 L 1.832031 -3.875 L 5.917969 -3.875 L 5.917969 -4.707031 L 1.832031 -4.707031 L 1.832031 -7.761719 L 6.046875 -7.761719 L 6.046875 -8.582031 L 0.945312 -8.582031 L 0.945312 0 Z M 6.046875 0 "/></g></g></g><g fill="#ffa400" fill-opacity="1"><g transform="translate(42.090504, 15.356642)"><g><path d="M 1.832031 -0.882812 L 1.832031 -8.582031 L 0.945312 -8.582031 L 0.945312 0 L 4.898438 0 L 4.898438 -0.882812 Z M 1.832031 -0.882812 "/></g></g></g><g fill="#ffa400" fill-opacity="1"><g transform="translate(49.764618, 15.356642)"><g><path d="M 6.296875 0 L 7.382812 0 L 4.367188 -4.292969 L 7.382812 -8.582031 L 6.296875 -8.582031 L 3.824219 -4.921875 L 1.351562 -8.582031 L 0.253906 -8.582031 L 3.28125 -4.277344 L 0.265625 0 L 1.351562 0 L 3.824219 -3.660156 Z M 6.296875 0 "/></g></g></g><g fill="#ffa400" fill-opacity="1"><g transform="translate(59.937418, 15.356642)"><g/></g></g><g fill="#ffa400" fill-opacity="1"><g transform="translate(65.870022, 15.356642)"><g><path d="M 1.832031 0 L 1.832031 -8.582031 L 0.945312 -8.582031 L 0.945312 0 Z M 1.832031 0 "/></g></g></g><g fill="#666666" fill-opacity="1"><g transform="translate(71.167689, 15.356642)"><g><path d="M 4.785156 0 L 5.667969 0 L 5.667969 -3.472656 C 5.667969 -4.113281 5.492188 -4.632812 5.164062 -5.023438 C 4.984375 -5.226562 4.785156 -5.378906 4.542969 -5.492188 C 4.292969 -5.605469 3.976562 -5.667969 3.585938 -5.667969 C 3.179688 -5.667969 2.839844 -5.554688 2.535156 -5.351562 C 2.246094 -5.164062 2.007812 -4.910156 1.832031 -4.59375 L 1.832031 -5.554688 L 0.945312 -5.554688 L 0.945312 0 L 1.832031 0 L 1.832031 -2.324219 C 1.832031 -3.03125 1.957031 -3.585938 2.222656 -4 C 2.371094 -4.226562 2.5625 -4.417969 2.800781 -4.570312 C 3.03125 -4.707031 3.34375 -4.785156 3.722656 -4.785156 C 4.101562 -4.785156 4.367188 -4.644531 4.53125 -4.390625 C 4.695312 -4.140625 4.785156 -3.824219 4.785156 -3.472656 Z M 4.785156 0 "/></g></g></g><g fill="#666666" fill-opacity="1"><g transform="translate(80.116382, 15.356642)"><g><path d="M 0.253906 -4.734375 L 1.640625 -4.734375 L 1.640625 0 L 2.523438 0 L 2.523438 -4.734375 L 3.898438 -4.734375 L 3.898438 -5.554688 L 2.523438 -5.554688 L 2.523438 -7.710938 L 1.640625 -7.710938 L 1.640625 -5.554688 L 0.253906 -5.554688 Z M 0.253906 -4.734375 "/></g></g></g><g fill="#666666" fill-opacity="1"><g transform="translate(86.793545, 15.356642)"><g><path d="M 6.375 -2.902344 C 6.375 -3.660156 6.070312 -4.316406 5.492188 -4.886719 C 4.921875 -5.425781 4.242188 -5.707031 3.472656 -5.707031 C 2.664062 -5.707031 1.980469 -5.414062 1.414062 -4.847656 C 0.84375 -4.277344 0.566406 -3.597656 0.566406 -2.800781 C 0.566406 -1.996094 0.84375 -1.3125 1.414062 -0.757812 C 1.679688 -0.492188 1.980469 -0.289062 2.335938 -0.140625 C 2.6875 0.0117188 3.105469 0.0898438 3.597656 0.0898438 C 4.089844 0.0898438 4.570312 -0.0625 5.050781 -0.367188 C 5.527344 -0.667969 5.882812 -1.097656 6.121094 -1.628906 L 5.113281 -1.628906 C 4.910156 -1.363281 4.671875 -1.160156 4.378906 -1.011719 C 4.089844 -0.859375 3.785156 -0.796875 3.472656 -0.796875 C 2.992188 -0.796875 2.5625 -0.945312 2.183594 -1.261719 C 1.804688 -1.566406 1.566406 -1.957031 1.488281 -2.4375 L 6.375 -2.4375 Z M 5.441406 -3.195312 L 1.503906 -3.195312 C 1.550781 -3.421875 1.640625 -3.636719 1.765625 -3.835938 C 2.171875 -4.492188 2.738281 -4.820312 3.472656 -4.820312 C 3.9375 -4.820312 4.355469 -4.671875 4.71875 -4.367188 C 5.097656 -4.050781 5.328125 -3.660156 5.441406 -3.195312 Z M 5.441406 -3.195312 "/></g></g></g><g fill="#666666" fill-opacity="1"><g transform="translate(96.196541, 15.356642)"><g><path d="M 3.800781 -4.40625 L 3.800781 -5.554688 C 3.621094 -5.628906 3.433594 -5.667969 3.242188 -5.667969 C 2.613281 -5.667969 2.160156 -5.3125 1.867188 -4.632812 L 1.832031 -4.40625 L 1.832031 -5.554688 L 0.945312 -5.554688 L 0.945312 0 L 1.832031 0 L 1.832031 -2.777344 C 1.832031 -3.230469 1.929688 -3.636719 2.144531 -4 C 2.246094 -4.191406 2.386719 -4.355469 2.550781 -4.480469 C 2.714844 -4.605469 2.914062 -4.683594 3.144531 -4.683594 C 3.371094 -4.683594 3.585938 -4.582031 3.800781 -4.40625 Z M 3.800781 -4.40625 "/></g></g></g><g fill="#666666" fill-opacity="1"><g transform="translate(102.646549, 15.356642)"><g><path d="M 4.785156 0 L 5.667969 0 L 5.667969 -3.472656 C 5.667969 -4.113281 5.492188 -4.632812 5.164062 -5.023438 C 4.984375 -5.226562 4.785156 -5.378906 4.542969 -5.492188 C 4.292969 -5.605469 3.976562 -5.667969 3.585938 -5.667969 C 3.179688 -5.667969 2.839844 -5.554688 2.535156 -5.351562 C 2.246094 -5.164062 2.007812 -4.910156 1.832031 -4.59375 L 1.832031 -5.554688 L 0.945312 -5.554688 L 0.945312 0 L 1.832031 0 L 1.832031 -2.324219 C 1.832031 -3.03125 1.957031 -3.585938 2.222656 -4 C 2.371094 -4.226562 2.5625 -4.417969 2.800781 -4.570312 C 3.03125 -4.707031 3.34375 -4.785156 3.722656 -4.785156 C 4.101562 -4.785156 4.367188 -4.644531 4.53125 -4.390625 C 4.695312 -4.140625 4.785156 -3.824219 4.785156 -3.472656 Z M 4.785156 0 "/></g></g></g><g fill="#666666" fill-opacity="1"><g transform="translate(111.595244, 15.356642)"><g><path d="M 5.363281 -2.777344 C 5.363281 -2.234375 5.175781 -1.753906 4.796875 -1.363281 C 4.417969 -0.960938 3.949219 -0.757812 3.40625 -0.757812 C 2.851562 -0.757812 2.386719 -0.960938 2.007812 -1.363281 C 1.628906 -1.753906 1.453125 -2.234375 1.453125 -2.777344 C 1.453125 -3.308594 1.628906 -3.785156 2.007812 -4.191406 C 2.386719 -4.59375 2.851562 -4.796875 3.40625 -4.796875 C 3.949219 -4.796875 4.417969 -4.59375 4.796875 -4.191406 C 5.175781 -3.785156 5.363281 -3.308594 5.363281 -2.777344 Z M 6.246094 0 L 6.246094 -5.554688 L 5.363281 -5.554688 L 5.363281 -4.59375 C 5.3125 -4.671875 5.25 -4.734375 5.199219 -4.796875 C 4.671875 -5.378906 4.027344 -5.679688 3.269531 -5.679688 C 2.5 -5.679688 1.855469 -5.378906 1.324219 -4.796875 C 0.820312 -4.214844 0.566406 -3.546875 0.566406 -2.777344 C 0.566406 -1.996094 0.820312 -1.324219 1.324219 -0.757812 C 1.855469 -0.164062 2.5 0.125 3.269531 0.125 C 4.027344 0.125 4.671875 -0.164062 5.199219 -0.757812 C 5.25 -0.808594 5.3125 -0.871094 5.363281 -0.945312 L 5.363281 0 Z M 6.246094 0 "/></g></g></g><g fill="#666666" fill-opacity="1"><g transform="translate(121.313735, 15.356642)"><g><path d="M 0.253906 -4.734375 L 1.640625 -4.734375 L 1.640625 0 L 2.523438 0 L 2.523438 -4.734375 L 3.898438 -4.734375 L 3.898438 -5.554688 L 2.523438 -5.554688 L 2.523438 -7.710938 L 1.640625 -7.710938 L 1.640625 -5.554688 L 0.253906 -5.554688 Z M 0.253906 -4.734375 "/></g></g></g><g fill="#666666" fill-opacity="1"><g transform="translate(127.990896, 15.356642)"><g><path d="M 1.84375 -7.472656 C 1.730469 -7.574219 1.589844 -7.636719 1.4375 -7.636719 C 1.289062 -7.636719 1.148438 -7.574219 1.046875 -7.472656 C 0.933594 -7.359375 0.882812 -7.21875 0.882812 -7.070312 C 0.882812 -6.917969 0.933594 -6.777344 1.046875 -6.675781 C 1.148438 -6.5625 1.289062 -6.511719 1.4375 -6.511719 C 1.589844 -6.511719 1.730469 -6.5625 1.84375 -6.675781 C 1.945312 -6.777344 2.007812 -6.917969 2.007812 -7.070312 C 2.007812 -7.21875 1.945312 -7.359375 1.84375 -7.472656 Z M 1.894531 0 L 1.894531 -5.554688 L 1.011719 -5.554688 L 1.011719 0 Z M 1.894531 0 "/></g></g></g><g fill="#666666" fill-opacity="1"><g transform="translate(133.406091, 15.356642)"><g><path d="M 5.492188 -2.800781 C 5.492188 -2.246094 5.289062 -1.78125 4.898438 -1.386719 C 4.492188 -0.984375 4.027344 -0.796875 3.472656 -0.796875 C 2.914062 -0.796875 2.4375 -0.984375 2.042969 -1.386719 C 1.640625 -1.78125 1.453125 -2.246094 1.453125 -2.800781 C 1.453125 -3.359375 1.640625 -3.824219 2.042969 -4.226562 C 2.4375 -4.621094 2.914062 -4.820312 3.472656 -4.820312 C 4.027344 -4.820312 4.492188 -4.621094 4.898438 -4.226562 C 5.289062 -3.824219 5.492188 -3.359375 5.492188 -2.800781 Z M 6.375 -2.800781 C 6.375 -3.597656 6.082031 -4.277344 5.515625 -4.847656 C 4.949219 -5.414062 4.265625 -5.707031 3.472656 -5.707031 C 2.664062 -5.707031 1.980469 -5.414062 1.414062 -4.847656 C 0.84375 -4.277344 0.566406 -3.597656 0.566406 -2.800781 C 0.566406 -1.996094 0.84375 -1.3125 1.414062 -0.757812 C 1.980469 -0.1875 2.675781 0.0898438 3.472656 0.0898438 C 4.253906 0.0898438 4.949219 -0.1875 5.515625 -0.757812 C 6.082031 -1.3125 6.375 -1.996094 6.375 -2.800781 Z M 6.375 -2.800781 "/></g></g></g><g fill="#666666" fill-opacity="1"><g transform="translate(142.872187, 15.356642)"><g><path d="M 4.785156 0 L 5.667969 0 L 5.667969 -3.472656 C 5.667969 -4.113281 5.492188 -4.632812 5.164062 -5.023438 C 4.984375 -5.226562 4.785156 -5.378906 4.542969 -5.492188 C 4.292969 -5.605469 3.976562 -5.667969 3.585938 -5.667969 C 3.179688 -5.667969 2.839844 -5.554688 2.535156 -5.351562 C 2.246094 -5.164062 2.007812 -4.910156 1.832031 -4.59375 L 1.832031 -5.554688 L 0.945312 -5.554688 L 0.945312 0 L 1.832031 0 L 1.832031 -2.324219 C 1.832031 -3.03125 1.957031 -3.585938 2.222656 -4 C 2.371094 -4.226562 2.5625 -4.417969 2.800781 -4.570312 C 3.03125 -4.707031 3.34375 -4.785156 3.722656 -4.785156 C 4.101562 -4.785156 4.367188 -4.644531 4.53125 -4.390625 C 4.695312 -4.140625 4.785156 -3.824219 4.785156 -3.472656 Z M 4.785156 0 "/></g></g></g><g fill="#666666" fill-opacity="1"><g transform="translate(151.820882, 15.356642)"><g><path d="M 5.363281 -2.777344 C 5.363281 -2.234375 5.175781 -1.753906 4.796875 -1.363281 C 4.417969 -0.960938 3.949219 -0.757812 3.40625 -0.757812 C 2.851562 -0.757812 2.386719 -0.960938 2.007812 -1.363281 C 1.628906 -1.753906 1.453125 -2.234375 1.453125 -2.777344 C 1.453125 -3.308594 1.628906 -3.785156 2.007812 -4.191406 C 2.386719 -4.59375 2.851562 -4.796875 3.40625 -4.796875 C 3.949219 -4.796875 4.417969 -4.59375 4.796875 -4.191406 C 5.175781 -3.785156 5.363281 -3.308594 5.363281 -2.777344 Z M 6.246094 0 L 6.246094 -5.554688 L 5.363281 -5.554688 L 5.363281 -4.59375 C 5.3125 -4.671875 5.25 -4.734375 5.199219 -4.796875 C 4.671875 -5.378906 4.027344 -5.679688 3.269531 -5.679688 C 2.5 -5.679688 1.855469 -5.378906 1.324219 -4.796875 C 0.820312 -4.214844 0.566406 -3.546875 0.566406 -2.777344 C 0.566406 -1.996094 0.820312 -1.324219 1.324219 -0.757812 C 1.855469 -0.164062 2.5 0.125 3.269531 0.125 C 4.027344 0.125 4.671875 -0.164062 5.199219 -0.757812 C 5.25 -0.808594 5.3125 -0.871094 5.363281 -0.945312 L 5.363281 0 Z M 6.246094 0 "/></g></g></g><g fill="#666666" fill-opacity="1"><g transform="translate(161.539374, 15.356642)"><g><path d="M 1.832031 0 L 1.832031 -9.464844 L 0.945312 -9.464844 L 0.945312 0 Z M 1.832031 0 "/></g></g></g><g fill="#ffa400" fill-opacity="1"><g transform="translate(9.027872, 30.238068)"><g><path d="M 1.832031 -6.324219 L 6.652344 0.53125 L 6.652344 -8.582031 L 5.769531 -8.582031 L 5.769531 -2.273438 L 0.945312 -9.125 L 0.945312 0 L 1.832031 0 Z M 1.832031 -6.324219 "/></g></g></g><g fill="#666666" fill-opacity="1"><g transform="translate(19.146114, 30.238068)"><g><path d="M 6.375 -2.902344 C 6.375 -3.660156 6.070312 -4.316406 5.492188 -4.886719 C 4.921875 -5.425781 4.242188 -5.707031 3.472656 -5.707031 C 2.664062 -5.707031 1.980469 -5.414062 1.414062 -4.847656 C 0.84375 -4.277344 0.566406 -3.597656 0.566406 -2.800781 C 0.566406 -1.996094 0.84375 -1.3125 1.414062 -0.757812 C 1.679688 -0.492188 1.980469 -0.289062 2.335938 -0.140625 C 2.6875 0.0117188 3.105469 0.0898438 3.597656 0.0898438 C 4.089844 0.0898438 4.570312 -0.0625 5.050781 -0.367188 C 5.527344 -0.667969 5.882812 -1.097656 6.121094 -1.628906 L 5.113281 -1.628906 C 4.910156 -1.363281 4.671875 -1.160156 4.378906 -1.011719 C 4.089844 -0.859375 3.785156 -0.796875 3.472656 -0.796875 C 2.992188 -0.796875 2.5625 -0.945312 2.183594 -1.261719 C 1.804688 -1.566406 1.566406 -1.957031 1.488281 -2.4375 L 6.375 -2.4375 Z M 5.441406 -3.195312 L 1.503906 -3.195312 C 1.550781 -3.421875 1.640625 -3.636719 1.765625 -3.835938 C 2.171875 -4.492188 2.738281 -4.820312 3.472656 -4.820312 C 3.9375 -4.820312 4.355469 -4.671875 4.71875 -4.367188 C 5.097656 -4.050781 5.328125 -3.660156 5.441406 -3.195312 Z M 5.441406 -3.195312 "/></g></g></g><g fill="#666666" fill-opacity="1"><g transform="translate(28.54911, 30.238068)"><g><path d="M 0.253906 -4.734375 L 1.640625 -4.734375 L 1.640625 0 L 2.523438 0 L 2.523438 -4.734375 L 3.898438 -4.734375 L 3.898438 -5.554688 L 2.523438 -5.554688 L 2.523438 -7.710938 L 1.640625 -7.710938 L 1.640625 -5.554688 L 0.253906 -5.554688 Z M 0.253906 -4.734375 "/></g></g></g><g fill="#666666" fill-opacity="1"><g transform="translate(35.226273, 30.238068)"><g><path d="M 6.375 0.707031 L 9.011719 -5.554688 L 8.027344 -5.554688 L 6.363281 -1.273438 L 4.570312 -5.84375 L 2.777344 -1.273438 L 1.109375 -5.554688 L 0.125 -5.554688 L 2.789062 0.707031 L 4.570312 -3.773438 Z M 6.375 0.707031 "/></g></g></g><g fill="#666666" fill-opacity="1"><g transform="translate(46.888187, 30.238068)"><g><path d="M 5.492188 -2.800781 C 5.492188 -2.246094 5.289062 -1.78125 4.898438 -1.386719 C 4.492188 -0.984375 4.027344 -0.796875 3.472656 -0.796875 C 2.914062 -0.796875 2.4375 -0.984375 2.042969 -1.386719 C 1.640625 -1.78125 1.453125 -2.246094 1.453125 -2.800781 C 1.453125 -3.359375 1.640625 -3.824219 2.042969 -4.226562 C 2.4375 -4.621094 2.914062 -4.820312 3.472656 -4.820312 C 4.027344 -4.820312 4.492188 -4.621094 4.898438 -4.226562 C 5.289062 -3.824219 5.492188 -3.359375 5.492188 -2.800781 Z M 6.375 -2.800781 C 6.375 -3.597656 6.082031 -4.277344 5.515625 -4.847656 C 4.949219 -5.414062 4.265625 -5.707031 3.472656 -5.707031 C 2.664062 -5.707031 1.980469 -5.414062 1.414062 -4.847656 C 0.84375 -4.277344 0.566406 -3.597656 0.566406 -2.800781 C 0.566406 -1.996094 0.84375 -1.3125 1.414062 -0.757812 C 1.980469 -0.1875 2.675781 0.0898438 3.472656 0.0898438 C 4.253906 0.0898438 4.949219 -0.1875 5.515625 -0.757812 C 6.082031 -1.3125 6.375 -1.996094 6.375 -2.800781 Z M 6.375 -2.800781 "/></g></g></g><g fill="#666666" fill-opacity="1"><g transform="translate(56.354282, 30.238068)"><g><path d="M 3.800781 -4.40625 L 3.800781 -5.554688 C 3.621094 -5.628906 3.433594 -5.667969 3.242188 -5.667969 C 2.613281 -5.667969 2.160156 -5.3125 1.867188 -4.632812 L 1.832031 -4.40625 L 1.832031 -5.554688 L 0.945312 -5.554688 L 0.945312 0 L 1.832031 0 L 1.832031 -2.777344 C 1.832031 -3.230469 1.929688 -3.636719 2.144531 -4 C 2.246094 -4.191406 2.386719 -4.355469 2.550781 -4.480469 C 2.714844 -4.605469 2.914062 -4.683594 3.144531 -4.683594 C 3.371094 -4.683594 3.585938 -4.582031 3.800781 -4.40625 Z M 3.800781 -4.40625 "/></g></g></g><g fill="#666666" fill-opacity="1"><g transform="translate(62.804288, 30.238068)"><g><path d="M 1.832031 0 L 1.832031 -2.664062 L 4.015625 0 L 5.1875 0 L 2.75 -2.863281 L 5.035156 -5.566406 L 3.863281 -5.566406 L 1.832031 -3.054688 L 1.832031 -9.464844 L 0.945312 -9.464844 L 0.945312 0 Z M 1.832031 0 "/></g></g></g><g fill="#666666" fill-opacity="1"><g transform="translate(70.64245, 30.238068)"><g/></g></g><g fill="#666666" fill-opacity="1"><g transform="translate(76.575054, 30.238068)"><g><path d="M 5.492188 -2.800781 C 5.492188 -2.246094 5.289062 -1.78125 4.898438 -1.386719 C 4.492188 -0.984375 4.027344 -0.796875 3.472656 -0.796875 C 2.914062 -0.796875 2.4375 -0.984375 2.042969 -1.386719 C 1.640625 -1.78125 1.453125 -2.246094 1.453125 -2.800781 C 1.453125 -3.359375 1.640625 -3.824219 2.042969 -4.226562 C 2.4375 -4.621094 2.914062 -4.820312 3.472656 -4.820312 C 4.027344 -4.820312 4.492188 -4.621094 4.898438 -4.226562 C 5.289062 -3.824219 5.492188 -3.359375 5.492188 -2.800781 Z M 6.375 -2.800781 C 6.375 -3.597656 6.082031 -4.277344 5.515625 -4.847656 C 4.949219 -5.414062 4.265625 -5.707031 3.472656 -5.707031 C 2.664062 -5.707031 1.980469 -5.414062 1.414062 -4.847656 C 0.84375 -4.277344 0.566406 -3.597656 0.566406 -2.800781 C 0.566406 -1.996094 0.84375 -1.3125 1.414062 -0.757812 C 1.980469 -0.1875 2.675781 0.0898438 3.472656 0.0898438 C 4.253906 0.0898438 4.949219 -0.1875 5.515625 -0.757812 C 6.082031 -1.3125 6.375 -1.996094 6.375 -2.800781 Z M 6.375 -2.800781 "/></g></g></g><g fill="#666666" fill-opacity="1"><g transform="translate(86.041147, 30.238068)"><g><path d="M 3.925781 -8.644531 L 3.925781 -9.464844 L 3.292969 -9.464844 C 2.664062 -9.464844 2.222656 -9.300781 1.957031 -9 C 1.691406 -8.695312 1.566406 -8.253906 1.566406 -7.699219 L 1.566406 -5.554688 L 0.441406 -5.554688 L 0.441406 -4.734375 L 1.566406 -4.734375 L 1.566406 0 L 2.449219 0 L 2.449219 -4.734375 L 3.925781 -4.734375 L 3.925781 -5.554688 L 2.449219 -5.554688 L 2.449219 -7.953125 C 2.449219 -8.140625 2.488281 -8.304688 2.585938 -8.445312 C 2.675781 -8.570312 2.863281 -8.644531 3.167969 -8.644531 Z M 3.925781 -8.644531 "/></g></g></g><g fill="#d9d9d9" fill-opacity="1"><g transform="translate(92.862723, 30.238068)"><g/></g></g><g fill="#ffa400" fill-opacity="1"><g transform="translate(98.78852, 30.238068)"><g><path d="M 1.832031 0 L 1.832031 -4.027344 L 4.71875 0 L 5.855469 0 L 2.699219 -4.292969 L 5.855469 -8.582031 L 4.71875 -8.582031 L 1.832031 -4.542969 L 1.832031 -8.582031 L 0.945312 -8.582031 L 0.945312 0 Z M 1.832031 0 "/></g></g></g><g fill="#666666" fill-opacity="1"><g transform="translate(107.293196, 30.238068)"><g><path d="M 4.785156 0 L 5.667969 0 L 5.667969 -3.472656 C 5.667969 -4.113281 5.492188 -4.632812 5.164062 -5.023438 C 4.984375 -5.226562 4.785156 -5.378906 4.542969 -5.492188 C 4.292969 -5.605469 3.976562 -5.667969 3.585938 -5.667969 C 3.179688 -5.667969 2.839844 -5.554688 2.535156 -5.351562 C 2.246094 -5.164062 2.007812 -4.910156 1.832031 -4.59375 L 1.832031 -5.554688 L 0.945312 -5.554688 L 0.945312 0 L 1.832031 0 L 1.832031 -2.324219 C 1.832031 -3.03125 1.957031 -3.585938 2.222656 -4 C 2.371094 -4.226562 2.5625 -4.417969 2.800781 -4.570312 C 3.03125 -4.707031 3.34375 -4.785156 3.722656 -4.785156 C 4.101562 -4.785156 4.367188 -4.644531 4.53125 -4.390625 C 4.695312 -4.140625 4.785156 -3.824219 4.785156 -3.472656 Z M 4.785156 0 "/></g></g></g><g fill="#666666" fill-opacity="1"><g transform="translate(116.241889, 30.238068)"><g><path d="M 5.492188 -2.800781 C 5.492188 -2.246094 5.289062 -1.78125 4.898438 -1.386719 C 4.492188 -0.984375 4.027344 -0.796875 3.472656 -0.796875 C 2.914062 -0.796875 2.4375 -0.984375 2.042969 -1.386719 C 1.640625 -1.78125 1.453125 -2.246094 1.453125 -2.800781 C 1.453125 -3.359375 1.640625 -3.824219 2.042969 -4.226562 C 2.4375 -4.621094 2.914062 -4.820312 3.472656 -4.820312 C 4.027344 -4.820312 4.492188 -4.621094 4.898438 -4.226562 C 5.289062 -3.824219 5.492188 -3.359375 5.492188 -2.800781 Z M 6.375 -2.800781 C 6.375 -3.597656 6.082031 -4.277344 5.515625 -4.847656 C 4.949219 -5.414062 4.265625 -5.707031 3.472656 -5.707031 C 2.664062 -5.707031 1.980469 -5.414062 1.414062 -4.847656 C 0.84375 -4.277344 0.566406 -3.597656 0.566406 -2.800781 C 0.566406 -1.996094 0.84375 -1.3125 1.414062 -0.757812 C 1.980469 -0.1875 2.675781 0.0898438 3.472656 0.0898438 C 4.253906 0.0898438 4.949219 -0.1875 5.515625 -0.757812 C 6.082031 -1.3125 6.375 -1.996094 6.375 -2.800781 Z M 6.375 -2.800781 "/></g></g></g><g fill="#666666" fill-opacity="1"><g transform="translate(125.707984, 30.238068)"><g><path d="M 6.375 0.707031 L 9.011719 -5.554688 L 8.027344 -5.554688 L 6.363281 -1.273438 L 4.570312 -5.84375 L 2.777344 -1.273438 L 1.109375 -5.554688 L 0.125 -5.554688 L 2.789062 0.707031 L 4.570312 -3.773438 Z M 6.375 0.707031 "/></g></g></g><g fill="#666666" fill-opacity="1"><g transform="translate(137.369897, 30.238068)"><g><path d="M 1.832031 0 L 1.832031 -9.464844 L 0.945312 -9.464844 L 0.945312 0 Z M 1.832031 0 "/></g></g></g><g fill="#666666" fill-opacity="1"><g transform="translate(142.671521, 30.238068)"><g><path d="M 6.375 -2.902344 C 6.375 -3.660156 6.070312 -4.316406 5.492188 -4.886719 C 4.921875 -5.425781 4.242188 -5.707031 3.472656 -5.707031 C 2.664062 -5.707031 1.980469 -5.414062 1.414062 -4.847656 C 0.84375 -4.277344 0.566406 -3.597656 0.566406 -2.800781 C 0.566406 -1.996094 0.84375 -1.3125 1.414062 -0.757812 C 1.679688 -0.492188 1.980469 -0.289062 2.335938 -0.140625 C 2.6875 0.0117188 3.105469 0.0898438 3.597656 0.0898438 C 4.089844 0.0898438 4.570312 -0.0625 5.050781 -0.367188 C 5.527344 -0.667969 5.882812 -1.097656 6.121094 -1.628906 L 5.113281 -1.628906 C 4.910156 -1.363281 4.671875 -1.160156 4.378906 -1.011719 C 4.089844 -0.859375 3.785156 -0.796875 3.472656 -0.796875 C 2.992188 -0.796875 2.5625 -0.945312 2.183594 -1.261719 C 1.804688 -1.566406 1.566406 -1.957031 1.488281 -2.4375 L 6.375 -2.4375 Z M 5.441406 -3.195312 L 1.503906 -3.195312 C 1.550781 -3.421875 1.640625 -3.636719 1.765625 -3.835938 C 2.171875 -4.492188 2.738281 -4.820312 3.472656 -4.820312 C 3.9375 -4.820312 4.355469 -4.671875 4.71875 -4.367188 C 5.097656 -4.050781 5.328125 -3.660156 5.441406 -3.195312 Z M 5.441406 -3.195312 "/></g></g></g><g fill="#666666" fill-opacity="1"><g transform="translate(152.074516, 30.238068)"><g><path d="M 5.363281 -2.777344 C 5.363281 -2.234375 5.175781 -1.753906 4.796875 -1.363281 C 4.417969 -0.960938 3.949219 -0.757812 3.40625 -0.757812 C 2.851562 -0.757812 2.386719 -0.960938 2.007812 -1.363281 C 1.628906 -1.753906 1.453125 -2.234375 1.453125 -2.777344 C 1.453125 -3.308594 1.628906 -3.785156 2.007812 -4.191406 C 2.386719 -4.59375 2.851562 -4.796875 3.40625 -4.796875 C 3.949219 -4.796875 4.417969 -4.59375 4.796875 -4.191406 C 5.175781 -3.785156 5.363281 -3.308594 5.363281 -2.777344 Z M 6.246094 0 L 6.246094 -9.464844 L 5.363281 -9.464844 L 5.363281 -4.59375 C 5.3125 -4.671875 5.25 -4.734375 5.199219 -4.796875 C 4.671875 -5.378906 4.027344 -5.679688 3.269531 -5.679688 C 2.5 -5.679688 1.855469 -5.378906 1.324219 -4.796875 C 0.820312 -4.214844 0.566406 -3.546875 0.566406 -2.777344 C 0.566406 -1.996094 0.820312 -1.324219 1.324219 -0.757812 C 1.855469 -0.164062 2.5 0.125 3.269531 0.125 C 4.027344 0.125 4.671875 -0.164062 5.199219 -0.757812 C 5.25 -0.808594 5.3125 -0.871094 5.363281 -0.945312 L 5.363281 0 Z M 6.246094 0 "/></g></g></g><g fill="#666666" fill-opacity="1"><g transform="translate(161.793007, 30.238068)"><g><path d="M 5.441406 -2.777344 C 5.441406 -2.234375 5.25 -1.753906 4.871094 -1.363281 C 4.492188 -0.960938 4.027344 -0.757812 3.484375 -0.757812 C 2.941406 -0.757812 2.472656 -0.960938 2.09375 -1.363281 C 1.714844 -1.753906 1.527344 -2.222656 1.527344 -2.777344 C 1.527344 -3.320312 1.714844 -3.785156 2.09375 -4.191406 C 2.472656 -4.59375 2.941406 -4.796875 3.484375 -4.796875 C 4.027344 -4.796875 4.492188 -4.59375 4.871094 -4.191406 C 5.25 -3.785156 5.441406 -3.308594 5.441406 -2.777344 Z M 1.503906 0.757812 L 0.59375 0.757812 C 0.695312 1.351562 0.960938 1.867188 1.414062 2.308594 C 1.96875 2.878906 2.652344 3.15625 3.445312 3.15625 C 4.226562 3.15625 4.910156 2.878906 5.476562 2.308594 C 6.035156 1.753906 6.324219 1.074219 6.324219 0.277344 L 6.324219 -5.554688 L 5.441406 -5.554688 L 5.441406 -4.621094 C 5.390625 -4.671875 5.339844 -4.734375 5.289062 -4.796875 C 4.734375 -5.378906 4.089844 -5.679688 3.359375 -5.679688 C 2.574219 -5.679688 1.929688 -5.378906 1.402344 -4.796875 C 0.894531 -4.214844 0.644531 -3.546875 0.644531 -2.777344 C 0.644531 -1.996094 0.894531 -1.324219 1.402344 -0.757812 C 1.929688 -0.164062 2.574219 0.125 3.359375 0.125 C 4.113281 0.125 4.757812 -0.164062 5.289062 -0.757812 C 5.339844 -0.808594 5.390625 -0.871094 5.441406 -0.921875 L 5.441406 0.277344 C 5.441406 0.832031 5.238281 1.300781 4.847656 1.691406 C 4.457031 2.082031 3.988281 2.273438 3.445312 2.273438 C 2.890625 2.273438 2.421875 2.082031 2.03125 1.691406 C 1.753906 1.414062 1.578125 1.109375 1.503906 0.757812 Z M 1.503906 0.757812 "/></g></g></g><g fill="#666666" fill-opacity="1"><g transform="translate(171.587217, 30.238068)"><g><path d="M 6.375 -2.902344 C 6.375 -3.660156 6.070312 -4.316406 5.492188 -4.886719 C 4.921875 -5.425781 4.242188 -5.707031 3.472656 -5.707031 C 2.664062 -5.707031 1.980469 -5.414062 1.414062 -4.847656 C 0.84375 -4.277344 0.566406 -3.597656 0.566406 -2.800781 C 0.566406 -1.996094 0.84375 -1.3125 1.414062 -0.757812 C 1.679688 -0.492188 1.980469 -0.289062 2.335938 -0.140625 C 2.6875 0.0117188 3.105469 0.0898438 3.597656 0.0898438 C 4.089844 0.0898438 4.570312 -0.0625 5.050781 -0.367188 C 5.527344 -0.667969 5.882812 -1.097656 6.121094 -1.628906 L 5.113281 -1.628906 C 4.910156 -1.363281 4.671875 -1.160156 4.378906 -1.011719 C 4.089844 -0.859375 3.785156 -0.796875 3.472656 -0.796875 C 2.992188 -0.796875 2.5625 -0.945312 2.183594 -1.261719 C 1.804688 -1.566406 1.566406 -1.957031 1.488281 -2.4375 L 6.375 -2.4375 Z M 5.441406 -3.195312 L 1.503906 -3.195312 C 1.550781 -3.421875 1.640625 -3.636719 1.765625 -3.835938 C 2.171875 -4.492188 2.738281 -4.820312 3.472656 -4.820312 C 3.9375 -4.820312 4.355469 -4.671875 4.71875 -4.367188 C 5.097656 -4.050781 5.328125 -3.660156 5.441406 -3.195312 Z M 5.441406 -3.195312 "/></g></g></g></svg>